{
    "asset": {
        "generator": "COLLADA2GLTF",
        "version": "2.0"
    },
    "scenes": [
        {
            "nodes": [
                0
            ]
        }
    ],
    "scene": 0,
    "nodes": [
        {
            "children": [
                6,
                5,
                4,
                3,
                2,
                1
            ],
            "name": "Y_UP"
        },
        {
            "mesh": 0,
            "matrix": [
                0.25,
                0.0,
                0.0,
                0.0,
                0.0,
                0.25,
                0.0,
                0.0,
                0.0,
                0.0,
                0.25,
                0.0,
                0.0,
                0.0,
                0.0,
                1.0
            ],
            "name": "layer_6"
        },
        {
            "mesh": 1,
            "matrix": [
                0.25,
                0.0,
                0.0,
                0.0,
                0.0,
                0.25,
                0.0,
                0.0,
                0.0,
                0.0,
                0.25,
                0.0,
                0.0,
                0.0,
                0.0,
                1.0
            ],
            "name": "layer_5"
        },
        {
            "mesh": 2,
            "matrix": [
                0.25,
                0.0,
                0.0,
                0.0,
                0.0,
                0.25,
                0.0,
                0.0,
                0.0,
                0.0,
                0.25,
                0.0,
                0.0,
                0.0,
                0.0,
                1.0
            ],
            "name": "layer_4"
        },
        {
            "mesh": 3,
            "matrix": [
                0.25,
                0.0,
                0.0,
                0.0,
                0.0,
                0.25,
                0.0,
                0.0,
                0.0,
                0.0,
                0.25,
                0.0,
                0.0,
                0.0,
                0.0,
                1.0
            ],
            "name": "layer_3"
        },
        {
            "mesh": 4,
            "matrix": [
                0.25,
                0.0,
                0.0,
                0.0,
                0.0,
                0.25,
                0.0,
                0.0,
                0.0,
                0.0,
                0.25,
                0.0,
                0.0,
                0.0,
                0.0,
                1.0
            ],
            "name": "layer_2"
        },
        {
            "mesh": 5,
            "matrix": [
                0.25,
                0.0,
                0.0,
                0.0,
                0.0,
                0.25,
                0.0,
                0.0,
                0.0,
                0.0,
                0.25,
                0.0,
                0.0,
                0.0,
                0.0,
                1.0
            ],
            "name": "layer_1"
        }
    ],
    "meshes": [
        {
            "primitives": [
                {
                    "attributes": {
                        "NORMAL": 1,
                        "POSITION": 2,
                        "TEXCOORD_0": 3
                    },
                    "indices": 0,
                    "mode": 4,
                    "material": 0
                }
            ],
            "name": "geometry57"
        },
        {
            "primitives": [
                {
                    "attributes": {
                        "NORMAL": 5,
                        "POSITION": 6,
                        "TEXCOORD_0": 7
                    },
                    "indices": 4,
                    "mode": 4,
                    "material": 1
                }
            ],
            "name": "geometry49"
        },
        {
            "primitives": [
                {
                    "attributes": {
                        "NORMAL": 9,
                        "POSITION": 10,
                        "TEXCOORD_0": 11
                    },
                    "indices": 8,
                    "mode": 4,
                    "material": 2
                }
            ],
            "name": "geometry41"
        },
        {
            "primitives": [
                {
                    "attributes": {
                        "NORMAL": 13,
                        "POSITION": 14,
                        "TEXCOORD_0": 15
                    },
                    "indices": 12,
                    "mode": 4,
                    "material": 3
                }
            ],
            "name": "geometry33"
        },
        {
            "primitives": [
                {
                    "attributes": {
                        "NORMAL": 17,
                        "POSITION": 18,
                        "TEXCOORD_0": 19
                    },
                    "indices": 16,
                    "mode": 4,
                    "material": 4
                }
            ],
            "name": "geometry25"
        },
        {
            "primitives": [
                {
                    "attributes": {
                        "NORMAL": 21,
                        "POSITION": 22,
                        "TEXCOORD_0": 23
                    },
                    "indices": 20,
                    "mode": 4,
                    "material": 5
                }
            ],
            "name": "geometry17"
        }
    ],
    "accessors": [
        {
            "bufferView": 0,
            "byteOffset": 0,
            "componentType": 5123,
            "count": 132,
            "max": [
                69
            ],
            "min": [
                0
            ],
            "type": "SCALAR"
        },
        {
            "bufferView": 1,
            "byteOffset": 0,
            "componentType": 5126,
            "count": 70,
            "max": [
                0.9371999502182008,
                0.9999599456787108,
                0.9999599456787108
            ],
            "min": [
                -0.9601099491119384,
                -0.9953999519348145,
                -0.9999599456787108
            ],
            "type": "VEC3"
        },
        {
            "bufferView": 1,
            "byteOffset": 840,
            "componentType": 5126,
            "count": 70,
            "max": [
                12.498000144958496,
                16.058000564575197,
                0.6520000100135803
            ],
            "min": [
                3.495000123977661,
                10.175000190734864,
                -0.4150000214576721
            ],
            "type": "VEC3"
        },
        {
            "bufferView": 2,
            "byteOffset": 0,
            "componentType": 5126,
            "count": 70,
            "max": [
                0.9948599934577942,
                0.990559995174408
            ],
            "min": [
                0.005140000022947788,
                0.04607003927230835
            ],
            "type": "VEC2"
        },
        {
            "bufferView": 0,
            "byteOffset": 264,
            "componentType": 5123,
            "count": 1728,
            "max": [
                289
            ],
            "min": [
                0
            ],
            "type": "SCALAR"
        },
        {
            "bufferView": 1,
            "byteOffset": 1680,
            "componentType": 5126,
            "count": 290,
            "max": [
                0.98881995677948,
                0.9999599456787108,
                0.9999499917030336
            ],
            "min": [
                -0.98881995677948,
                -0.9999599456787108,
                -0.9999799728393556
            ],
            "type": "VEC3"
        },
        {
            "bufferView": 1,
            "byteOffset": 5160,
            "componentType": 5126,
            "count": 290,
            "max": [
                2.3490002155303957,
                4.508000373840332,
                6.718000411987305
            ],
            "min": [
                -2.3490002155303957,
                3.063000202178955,
                5.939000129699707
            ],
            "type": "VEC3"
        },
        {
            "bufferView": 2,
            "byteOffset": 560,
            "componentType": 5126,
            "count": 290,
            "max": [
                0.3486299812793732,
                0.21762001514434818
            ],
            "min": [
                0.020159998908638959,
                0.10670000314712525
            ],
            "type": "VEC2"
        },
        {
            "bufferView": 0,
            "byteOffset": 3720,
            "componentType": 5123,
            "count": 4560,
            "max": [
                763
            ],
            "min": [
                0
            ],
            "type": "SCALAR"
        },
        {
            "bufferView": 1,
            "byteOffset": 8640,
            "componentType": 5126,
            "count": 764,
            "max": [
                1.0,
                0.9999599456787108,
                0.9999599456787108
            ],
            "min": [
                -1.0,
                -0.9999599456787108,
                -0.9999599456787108
            ],
            "type": "VEC3"
        },
        {
            "bufferView": 1,
            "byteOffset": 17808,
            "componentType": 5126,
            "count": 764,
            "max": [
                1.5690001249313357,
                5.656000137329102,
                6.333000183105469
            ],
            "min": [
                -1.5690001249313357,
                5.194000244140625,
                5.871000289916992
            ],
            "type": "VEC3"
        },
        {
            "bufferView": 2,
            "byteOffset": 2880,
            "componentType": 5126,
            "count": 764,
            "max": [
                0.2941199839115143,
                0.0542600154876709
            ],
            "min": [
                0.07466999441385269,
                0.01876002550125122
            ],
            "type": "VEC2"
        },
        {
            "bufferView": 0,
            "byteOffset": 12840,
            "componentType": 5123,
            "count": 1854,
            "max": [
                319
            ],
            "min": [
                0
            ],
            "type": "SCALAR"
        },
        {
            "bufferView": 1,
            "byteOffset": 26976,
            "componentType": 5126,
            "count": 320,
            "max": [
                0.9910000562667848,
                1.0,
                0.9921799898147584
            ],
            "min": [
                -0.9910000562667848,
                -0.9999699592590332,
                -0.9902999997138976
            ],
            "type": "VEC3"
        },
        {
            "bufferView": 1,
            "byteOffset": 30816,
            "componentType": 5126,
            "count": 320,
            "max": [
                5.437000274658203,
                7.303000450134277,
                5.480000019073486
            ],
            "min": [
                -5.437000274658203,
                3.386000156402588,
                -5.39300012588501
            ],
            "type": "VEC3"
        },
        {
            "bufferView": 2,
            "byteOffset": 8992,
            "componentType": 5126,
            "count": 320,
            "max": [
                0.9139099717140198,
                0.19743001461029056
            ],
            "min": [
                0.4328799843788147,
                0.11353999376296996
            ],
            "type": "VEC2"
        },
        {
            "bufferView": 0,
            "byteOffset": 16548,
            "componentType": 5123,
            "count": 2100,
            "max": [
                360
            ],
            "min": [
                0
            ],
            "type": "SCALAR"
        },
        {
            "bufferView": 1,
            "byteOffset": 34656,
            "componentType": 5126,
            "count": 361,
            "max": [
                0.9889599680900574,
                0.977679967880249,
                0.987209975719452
            ],
            "min": [
                -0.9921000003814696,
                -0.9992599487304688,
                -0.989929974079132
            ],
            "type": "VEC3"
        },
        {
            "bufferView": 1,
            "byteOffset": 38988,
            "componentType": 5126,
            "count": 361,
            "max": [
                4.342000007629395,
                11.885000228881836,
                4.412000179290772
            ],
            "min": [
                -4.342000007629395,
                6.6670002937316898,
                -4.271000385284424
            ],
            "type": "VEC3"
        },
        {
            "bufferView": 2,
            "byteOffset": 11552,
            "componentType": 5126,
            "count": 361,
            "max": [
                0.8654599785804749,
                0.1262500286102295
            ],
            "min": [
                0.4813399910926819,
                0.013360023498535157
            ],
            "type": "VEC2"
        },
        {
            "bufferView": 0,
            "byteOffset": 20748,
            "componentType": 5123,
            "count": 1854,
            "max": [
                319
            ],
            "min": [
                0
            ],
            "type": "SCALAR"
        },
        {
            "bufferView": 1,
            "byteOffset": 43320,
            "componentType": 5126,
            "count": 320,
            "max": [
                0.987339973449707,
                1.0,
                0.9887399673461914
            ],
            "min": [
                -0.987339973449707,
                -0.9999699592590332,
                -0.9861799478530884
            ],
            "type": "VEC3"
        },
        {
            "bufferView": 1,
            "byteOffset": 47160,
            "componentType": 5126,
            "count": 320,
            "max": [
                6.985000133514404,
                4.244000434875488,
                6.999000549316406
            ],
            "min": [
                -6.985000133514404,
                0.0020000000949949028,
                -6.9710001945495609
            ],
            "type": "VEC3"
        },
        {
            "bufferView": 2,
            "byteOffset": 14440,
            "componentType": 5126,
            "count": 320,
            "max": [
                0.9824000000953674,
                0.2708200216293335
            ],
            "min": [
                0.3643999993801117,
                0.18022000789642338
            ],
            "type": "VEC2"
        }
    ],
    "materials": [
        {
            "pbrMetallicRoughness": {
                "baseColorFactor": [
                    1.0,
                    1.0,
                    1.0,
                    1.0
                ],
                "baseColorTexture": {
                    "index": 0
                },
                "metallicFactor": 0.0
            },
            "emissiveFactor": [
                1.0,
                1.0,
                1.0
            ],
            "emissiveTexture": {
                "index": 1
            },
            "occlusionTexture": {
                "index": 0
            },
            "name": "effect_StingrayPBS_5"
        },
        {
            "pbrMetallicRoughness": {
                "baseColorFactor": [
                    1.0,
                    1.0,
                    1.0,
                    1.0
                ],
                "baseColorTexture": {
                    "index": 2
                },
                "metallicFactor": 0.0
            },
            "emissiveFactor": [
                1.0,
                1.0,
                1.0
            ],
            "emissiveTexture": {
                "index": 3
            },
            "occlusionTexture": {
                "index": 2
            },
            "name": "effect_StingrayPBS_4"
        },
        {
            "pbrMetallicRoughness": {
                "baseColorFactor": [
                    1.0,
                    1.0,
                    1.0,
                    1.0
                ],
                "baseColorTexture": {
                    "index": 4
                },
                "metallicFactor": 0.0
            },
            "emissiveFactor": [
                1.0,
                1.0,
                1.0
            ],
            "emissiveTexture": {
                "index": 5
            },
            "occlusionTexture": {
                "index": 4
            },
            "name": "effect_StingrayPBS_3"
        },
        {
            "pbrMetallicRoughness": {
                "baseColorFactor": [
                    1.0,
                    1.0,
                    1.0,
                    1.0
                ],
                "baseColorTexture": {
                    "index": 6
                },
                "metallicFactor": 0.0
            },
            "emissiveFactor": [
                1.0,
                1.0,
                1.0
            ],
            "emissiveTexture": {
                "index": 7
            },
            "occlusionTexture": {
                "index": 6
            },
            "name": "effect_StingrayPBS_2"
        },
        {
            "pbrMetallicRoughness": {
                "baseColorFactor": [
                    1.0,
                    1.0,
                    1.0,
                    1.0
                ],
                "baseColorTexture": {
                    "index": 8
                },
                "metallicFactor": 0.0
            },
            "emissiveFactor": [
                1.0,
                1.0,
                1.0
            ],
            "emissiveTexture": {
                "index": 9
            },
            "occlusionTexture": {
                "index": 8
            },
            "name": "effect_StingrayPBS_1"
        },
        {
            "pbrMetallicRoughness": {
                "baseColorFactor": [
                    1.0,
                    1.0,
                    1.0,
                    1.0
                ],
                "baseColorTexture": {
                    "index": 10
                },
                "metallicFactor": 0.0
            },
            "emissiveFactor": [
                1.0,
                1.0,
                1.0
            ],
            "emissiveTexture": {
                "index": 11
            },
            "occlusionTexture": {
                "index": 10
            },
            "name": "effect_StingrayPBS_0"
        }
    ],
    "textures": [
        {
            "sampler": 0,
            "source": 0
        },
        {
            "sampler": 0,
            "source": 1
        },
        {
            "sampler": 0,
            "source": 0
        },
        {
            "sampler": 0,
            "source": 1
        },
        {
            "sampler": 0,
            "source": 0
        },
        {
            "sampler": 0,
            "source": 1
        },
        {
            "sampler": 0,
            "source": 0
        },
        {
            "sampler": 0,
            "source": 1
        },
        {
            "sampler": 0,
            "source": 0
        },
        {
            "sampler": 0,
            "source": 1
        },
        {
            "sampler": 0,
            "source": 0
        },
        {
            "sampler": 0,
            "source": 1
        }
    ],
    "images": [
        {
            "uri": "data:image/png;base64,"
        },
        {
            "uri": "data:image/png;base64,"
        }
    ],
    "samplers": [
        {
            "magFilter": 9729,
            "minFilter": 9986,
            "wrapS": 10497,
            "wrapT": 10497
        }
    ],
    "bufferViews": [
        {
            "buffer": 0,
            "byteOffset": 68000,
            "byteLength": 24456,
            "target": 34963
        },
        {
            "buffer": 0,
            "byteOffset": 0,
            "byteLength": 51000,
            "byteStride": 12,
            "target": 34962
        },
        {
            "buffer": 0,
            "byteOffset": 51000,
            "byteLength": 17000,
            "byteStride": 8,
            "target": 34962
        }
    ],
    "buffers": [
        {
            "byteLength": 92456,
            "uri": "data:application/octet-stream;base64,"
        }
    ]
}
