{
    "asset": {
        "generator": "COLLADA2GLTF",
        "version": "2.0"
    },
    "scenes": [
        {
            "nodes": [
                0
            ]
        }
    ],
    "scene": 0,
    "nodes": [
        {
            "children": [
                5,
                4,
                3,
                2,
                1
            ],
            "name": "Y_UP"
        },
        {
            "mesh": 0,
            "name": "layer_5"
        },
        {
            "mesh": 1,
            "name": "layer_4"
        },
        {
            "mesh": 2,
            "name": "layer_3"
        },
        {
            "mesh": 3,
            "name": "layer_2"
        },
        {
            "mesh": 4,
            "name": "layer_1"
        }
    ],
    "meshes": [
        {
            "primitives": [
                {
                    "attributes": {
                        "NORMAL": 1,
                        "POSITION": 2,
                        "TEXCOORD_0": 3
                    },
                    "indices": 0,
                    "mode": 4,
                    "material": 0
                }
            ],
            "name": "geometry47"
        },
        {
            "primitives": [
                {
                    "attributes": {
                        "NORMAL": 5,
                        "POSITION": 6,
                        "TEXCOORD_0": 7
                    },
                    "indices": 4,
                    "mode": 4,
                    "material": 1
                }
            ],
            "name": "geometry39"
        },
        {
            "primitives": [
                {
                    "attributes": {
                        "NORMAL": 9,
                        "POSITION": 10,
                        "TEXCOORD_0": 11
                    },
                    "indices": 8,
                    "mode": 4,
                    "material": 2
                }
            ],
            "name": "geometry31"
        },
        {
            "primitives": [
                {
                    "attributes": {
                        "NORMAL": 13,
                        "POSITION": 14,
                        "TEXCOORD_0": 15
                    },
                    "indices": 12,
                    "mode": 4,
                    "material": 3
                }
            ],
            "name": "geometry23"
        },
        {
            "primitives": [
                {
                    "attributes": {
                        "NORMAL": 17,
                        "POSITION": 18,
                        "TEXCOORD_0": 19
                    },
                    "indices": 16,
                    "mode": 4,
                    "material": 4
                }
            ],
            "name": "geometry15"
        }
    ],
    "accessors": [
        {
            "bufferView": 0,
            "byteOffset": 0,
            "componentType": 5123,
            "count": 1728,
            "max": [
                289
            ],
            "min": [
                0
            ],
            "type": "SCALAR"
        },
        {
            "bufferView": 1,
            "byteOffset": 0,
            "componentType": 5126,
            "count": 290,
            "max": [
                0.98881995677948,
                0.9999499917030336,
                0.9999699592590332
            ],
            "min": [
                -0.98881995677948,
                -0.9999499917030336,
                -0.9999399781227112
            ],
            "type": "VEC3"
        },
        {
            "bufferView": 1,
            "byteOffset": 3480,
            "componentType": 5126,
            "count": 290,
            "max": [
                2.321000099182129,
                4.574000358581543,
                6.567000389099121
            ],
            "min": [
                -2.321000099182129,
                3.1460001468658449,
                5.797000408172607
            ],
            "type": "VEC3"
        },
        {
            "bufferView": 2,
            "byteOffset": 0,
            "componentType": 5126,
            "count": 290,
            "max": [
                0.3486299812793732,
                0.21762001514434818
            ],
            "min": [
                0.020159998908638959,
                0.10670000314712525
            ],
            "type": "VEC2"
        },
        {
            "bufferView": 0,
            "byteOffset": 3456,
            "componentType": 5123,
            "count": 4560,
            "max": [
                763
            ],
            "min": [
                0
            ],
            "type": "SCALAR"
        },
        {
            "bufferView": 1,
            "byteOffset": 6960,
            "componentType": 5126,
            "count": 764,
            "max": [
                1.0,
                0.9999499917030336,
                0.9999499917030336
            ],
            "min": [
                -1.0,
                -0.9999499917030336,
                -0.9999499917030336
            ],
            "type": "VEC3"
        },
        {
            "bufferView": 1,
            "byteOffset": 16128,
            "componentType": 5126,
            "count": 764,
            "max": [
                1.5510001182556153,
                5.704000473022461,
                6.156000137329102
            ],
            "min": [
                -1.5510001182556153,
                5.247000217437744,
                5.699000358581543
            ],
            "type": "VEC3"
        },
        {
            "bufferView": 2,
            "byteOffset": 2320,
            "componentType": 5126,
            "count": 764,
            "max": [
                0.2941199839115143,
                0.0542600154876709
            ],
            "min": [
                0.07466999441385269,
                0.01876002550125122
            ],
            "type": "VEC2"
        },
        {
            "bufferView": 0,
            "byteOffset": 12576,
            "componentType": 5123,
            "count": 1854,
            "max": [
                319
            ],
            "min": [
                0
            ],
            "type": "SCALAR"
        },
        {
            "bufferView": 1,
            "byteOffset": 25296,
            "componentType": 5126,
            "count": 320,
            "max": [
                0.9910000562667848,
                1.0,
                0.9904299974441528
            ],
            "min": [
                -0.9910000562667848,
                -0.9999599456787108,
                -0.9922899603843688
            ],
            "type": "VEC3"
        },
        {
            "bufferView": 1,
            "byteOffset": 29136,
            "componentType": 5126,
            "count": 320,
            "max": [
                5.373000144958496,
                7.221000194549561,
                5.326000213623047
            ],
            "min": [
                -5.373000144958496,
                3.3430001735687258,
                -5.420000076293945
            ],
            "type": "VEC3"
        },
        {
            "bufferView": 2,
            "byteOffset": 8432,
            "componentType": 5126,
            "count": 320,
            "max": [
                0.9139099717140198,
                0.19743001461029056
            ],
            "min": [
                0.4328799843788147,
                0.11353999376296996
            ],
            "type": "VEC2"
        },
        {
            "bufferView": 0,
            "byteOffset": 16284,
            "componentType": 5123,
            "count": 2100,
            "max": [
                360
            ],
            "min": [
                0
            ],
            "type": "SCALAR"
        },
        {
            "bufferView": 1,
            "byteOffset": 32976,
            "componentType": 5126,
            "count": 361,
            "max": [
                0.9889599680900574,
                0.9776699542999268,
                0.9900599718093872
            ],
            "min": [
                -0.9921000003814696,
                -0.9992899894714356,
                -0.9870599508285524
            ],
            "type": "VEC3"
        },
        {
            "bufferView": 1,
            "byteOffset": 37308,
            "componentType": 5126,
            "count": 361,
            "max": [
                4.2910003662109379,
                11.746000289916993,
                4.214000225067139
            ],
            "min": [
                -4.2910003662109379,
                6.586000442504883,
                -4.367000102996826
            ],
            "type": "VEC3"
        },
        {
            "bufferView": 2,
            "byteOffset": 10992,
            "componentType": 5126,
            "count": 361,
            "max": [
                0.8654599785804749,
                0.1262500286102295
            ],
            "min": [
                0.4813399910926819,
                0.013360023498535157
            ],
            "type": "VEC2"
        },
        {
            "bufferView": 0,
            "byteOffset": 20484,
            "componentType": 5123,
            "count": 1854,
            "max": [
                319
            ],
            "min": [
                0
            ],
            "type": "SCALAR"
        },
        {
            "bufferView": 1,
            "byteOffset": 41640,
            "componentType": 5126,
            "count": 320,
            "max": [
                0.987339973449707,
                1.0,
                0.9863399863243104
            ],
            "min": [
                -0.987339973449707,
                -0.9999599456787108,
                -0.9888799786567688
            ],
            "type": "VEC3"
        },
        {
            "bufferView": 1,
            "byteOffset": 45480,
            "componentType": 5126,
            "count": 320,
            "max": [
                6.903000354766846,
                4.198000431060791,
                6.88800048828125
            ],
            "min": [
                -6.903000354766846,
                -0.003000000026077032,
                -6.918000221252441
            ],
            "type": "VEC3"
        },
        {
            "bufferView": 2,
            "byteOffset": 13880,
            "componentType": 5126,
            "count": 320,
            "max": [
                0.9824000000953674,
                0.2708200216293335
            ],
            "min": [
                0.3643999993801117,
                0.18022000789642338
            ],
            "type": "VEC2"
        }
    ],
    "materials": [
        {
            "pbrMetallicRoughness": {
                "baseColorFactor": [
                    1.0,
                    1.0,
                    1.0,
                    1.0
                ],
                "baseColorTexture": {
                    "index": 0
                },
                "metallicFactor": 0.0
            },
            "emissiveFactor": [
                1.0,
                1.0,
                1.0
            ],
            "emissiveTexture": {
                "index": 1
            },
            "occlusionTexture": {
                "index": 0
            },
            "name": "effect_StingrayPBS_4"
        },
        {
            "pbrMetallicRoughness": {
                "baseColorFactor": [
                    1.0,
                    1.0,
                    1.0,
                    1.0
                ],
                "baseColorTexture": {
                    "index": 2
                },
                "metallicFactor": 0.0
            },
            "emissiveFactor": [
                1.0,
                1.0,
                1.0
            ],
            "emissiveTexture": {
                "index": 3
            },
            "occlusionTexture": {
                "index": 2
            },
            "name": "effect_StingrayPBS_3"
        },
        {
            "pbrMetallicRoughness": {
                "baseColorFactor": [
                    1.0,
                    1.0,
                    1.0,
                    1.0
                ],
                "baseColorTexture": {
                    "index": 4
                },
                "metallicFactor": 0.0
            },
            "emissiveFactor": [
                1.0,
                1.0,
                1.0
            ],
            "emissiveTexture": {
                "index": 5
            },
            "occlusionTexture": {
                "index": 4
            },
            "name": "effect_StingrayPBS_2"
        },
        {
            "pbrMetallicRoughness": {
                "baseColorFactor": [
                    1.0,
                    1.0,
                    1.0,
                    1.0
                ],
                "baseColorTexture": {
                    "index": 6
                },
                "metallicFactor": 0.0
            },
            "emissiveFactor": [
                1.0,
                1.0,
                1.0
            ],
            "emissiveTexture": {
                "index": 7
            },
            "occlusionTexture": {
                "index": 6
            },
            "name": "effect_StingrayPBS_1"
        },
        {
            "pbrMetallicRoughness": {
                "baseColorFactor": [
                    1.0,
                    1.0,
                    1.0,
                    1.0
                ],
                "baseColorTexture": {
                    "index": 8
                },
                "metallicFactor": 0.0
            },
            "emissiveFactor": [
                1.0,
                1.0,
                1.0
            ],
            "emissiveTexture": {
                "index": 9
            },
            "occlusionTexture": {
                "index": 8
            },
            "name": "effect_StingrayPBS_0"
        }
    ],
    "textures": [
        {
            "sampler": 0,
            "source": 0
        },
        {
            "sampler": 0,
            "source": 1
        },
        {
            "sampler": 0,
            "source": 0
        },
        {
            "sampler": 0,
            "source": 1
        },
        {
            "sampler": 0,
            "source": 0
        },
        {
            "sampler": 0,
            "source": 1
        },
        {
            "sampler": 0,
            "source": 0
        },
        {
            "sampler": 0,
            "source": 1
        },
        {
            "sampler": 0,
            "source": 0
        },
        {
            "sampler": 0,
            "source": 1
        }
    ],
    "images": [
        {
            "uri": "data:image/png;base64,"
        },
        {
            "uri": "data:image/png;base64,"
        }
    ],
    "samplers": [
        {
            "magFilter": 9729,
            "minFilter": 9986,
            "wrapS": 10497,
            "wrapT": 10497
        }
    ],
    "bufferViews": [
        {
            "buffer": 0,
            "byteOffset": 65760,
            "byteLength": 24192,
            "target": 34963
        },
        {
            "buffer": 0,
            "byteOffset": 0,
            "byteLength": 49320,
            "byteStride": 12,
            "target": 34962
        },
        {
            "buffer": 0,
            "byteOffset": 49320,
            "byteLength": 16440,
            "byteStride": 8,
            "target": 34962
        }
    ],
    "buffers": [
        {
            "byteLength": 89952,
            "uri": "data:application/octet-stream;base64,"
        }
    ]
}
